<svg xmlns="http://www.w3.org/2000/svg" width="805" height="600"><rect width="805" height="600" x="0" y="0" fill="#FFFFFF" id="background"/><g transform="translate(10,10)" id="viz"><g><rect x="0" y="23.216462083418605" height="334.20799136043206" width="5" fill="black"><title>How-to / Question: 11700</title></rect><rect x="390" y="297.9727311431523" height="10.51184109578088" width="5" fill="black"><title>R: 368</title></rect><rect x="0" y="372.2752025001022" height="46.417776577837685" width="5" fill="black"><title>Troubleshooting: 1625</title></rect><rect x="780" y="295.616136332278" height="22.166273615016678" width="5" fill="black"><title>SQL / BI Tools: 776</title></rect><rect x="0" y="487.9281404419674" height="8.569435675908778" width="5" fill="black"><title>General Inquiry: 300</title></rect><rect x="0" y="433.5437281341914" height="39.5336632515245" width="5" fill="black"><title>Build / Design: 1384</title></rect><rect x="780" y="457.3125691907017" height="17.73873184913043" width="5" fill="black"><title>Python: 621</title></rect><rect x="780" y="332.6331590035462" height="49.38851427881923" width="5" fill="black"><title>SQL Server / SSIS / SSRS: 1729</title></rect><rect x="0" y="511.3483251741277" height="34.96329755770694" width="5" fill="black"><title>Analysis / Research: 1224</title></rect><rect x="390" y="20.992177957319296" height="37.50556347489268" width="5" fill="black"><title>General Purpose: 1313</title></rect><rect x="390" y="524.4309969726817" height="21.880625759152963" width="5" fill="black"><title>Writing / Translation: 766</title></rect><rect x="780" y="520.5205607960066" height="9.940545384053962" width="5" fill="black"><title>Personal / Daily Life: 348</title></rect><rect x="390" y="487.2913116635881" height="7.712492108317633" width="5" fill="black"><title>AI / ML: 270</title></rect><rect x="390" y="69.00181905586187" height="53.13050119063276" width="5" fill="black"><title>Apache Spark: 1860</title></rect><rect x="390" y="324.6921486105365" height="14.310957578767386" width="5" fill="black"><title>Python / Programming: 501</title></rect><rect x="780" y="396.87242233861696" height="45.589397795833236" width="5" fill="black"><title>Study / Coursework: 1596</title></rect><rect x="390" y="29.055436137663094" height="71.81187096411325" width="5" fill="black"><title>Power BI: 2514</title></rect><rect x="390" y="294.4021329448571" height="14.082439294076153" width="5" fill="black"><title>Amazon S3: 493</title></rect><rect x="390" y="409.8320166488547" height="4.770319192922443" width="5" fill="black"><title>Cloud / AWS: 167</title></rect><rect x="390" y="223.5914992005945" height="7.883880821836044" width="5" fill="black"><title>Data Pipeline / Engineering: 276</title></rect><rect x="0" y="6.2519188937763825" height="2.113794133390707" width="5" fill="black"><title>Interview Prep / Learning: 74</title></rect><rect x="390" y="399.16600868100545" height="4.199023481195013" width="5" fill="black"><title>Databricks: 147</title></rect><rect x="780" y="489.90205009608366" height="15.767761643671406" width="5" fill="black"><title>Apache Airflow: 552</title></rect><rect x="780" y="545.3118552363121" height="0.9997674955225193" width="5" fill="black"><title>OpenAI / ChatGPT: 35</title></rect><rect x="390" y="197.31189646114203" height="24.50858603309831" width="5" fill="black"><title>Git / GitHub: 858</title></rect><rect x="390" y="0" height="6.141428901067782" width="5" fill="black"><title>Amazon Redshift: 215</title></rect><rect x="390" y="291.62294524749933" height="18.73849934465329" width="5" fill="black"><title>dbt: 656</title></rect><rect x="390" y="320.07158711669814" height="3.5420334127090314" width="5" fill="black"><title>Docker: 124</title></rect><rect x="390" y="479.3946181732873" height="0.4570365693818417" width="5" fill="black"><title>Terraform: 16</title></rect><rect x="390" y="280.31528447779505" height="7.512538609213266" width="5" fill="black"><title>AWS Glue: 263</title></rect></g><g class="links" fill="none" stroke-opacity="1"><path d="M5,237.88082576492673C197.5,237.88082576492673,197.5,301.0291632008931,390,301.0291632008931" stroke="#fbf8b0" style="stroke-width: 6.11286; mix-blend-mode: normal;"><title>How-to / Question → R: 214</title></path><path d="M5,397.0980011746508C392.5,397.0980011746508,392.5,313.98329346430853,780,313.98329346430853" stroke="#56adae" style="stroke-width: 1.31398; mix-blend-mode: normal;"><title>Troubleshooting → SQL / BI Tools: 46</title></path><path d="M5,494.5837354835893C392.5,494.5837354835893,392.5,315.55435667155854,780,315.55435667155854" stroke="#fdbe70" style="stroke-width: 1; mix-blend-mode: normal;"><title>General Inquiry → SQL / BI Tools: 24</title></path><path d="M5,469.30683968831596C392.5,469.30683968831596,392.5,474.56569968486394,780,474.56569968486394" stroke="#e85e49" style="stroke-width: 1; mix-blend-mode: normal;"><title>Build / Design → Python: 10</title></path><path d="M5,495.240725552076C392.5,495.240725552076,392.5,378.5938990120022,780,378.5938990120022" stroke="#fdbe70" style="stroke-width: 1; mix-blend-mode: normal;"><title>General Inquiry → SQL Server / SSIS / SSRS: 22</title></path><path d="M5,527.0446748538335C392.5,527.0446748538335,392.5,316.454147417529,780,316.454147417529" stroke="#eb86b0" style="stroke-width: 1.11403; mix-blend-mode: normal;"><title>Analysis / Research → SQL / BI Tools: 39</title></path><path d="M5,490.48468875194675C197.5,490.48468875194675,197.5,52.970455421251266,390,52.970455421251266" stroke="#fdbe70" style="stroke-width: 5.1131; mix-blend-mode: normal;"><title>General Inquiry → General Purpose: 179</title></path><path d="M5,184.45039432563703C392.5,184.45039432563703,392.5,304.6283261847751,780,304.6283261847751" stroke="#fbf8b0" style="stroke-width: 17.396; mix-blend-mode: normal;"><title>How-to / Question → SQL / BI Tools: 609</title></path><path d="M5,40.55528693434019C197.5,40.55528693434019,197.5,34.503321539668484,390,34.503321539668484" stroke="#fbf8b0" style="stroke-width: 26.3367; mix-blend-mode: normal;"><title>How-to / Question → General Purpose: 922</title></path><path d="M395,526.3876847853478C587.5,526.3876847853478,587.5,529.8755280755403,780,529.8755280755403" stroke="#5e4fa2" style="stroke-width: 1; mix-blend-mode: normal;"><title>Writing / Translation → Personal / Daily Life: 5</title></path><path d="M5,471.2920922865685C197.5,471.2920922865685,197.5,491.64744146550834,390,491.64744146550834" stroke="#e85e49" style="stroke-width: 3.5706; mix-blend-mode: normal;"><title>Build / Design → AI / ML: 125</title></path><path d="M5,434.8719906639571C197.5,434.8719906639571,197.5,49.59981072206053,390,49.59981072206053" stroke="#e85e49" style="stroke-width: 1.62819; mix-blend-mode: normal;"><title>Build / Design → General Purpose: 57</title></path><path d="M5,131.44843467014311C197.5,131.44843467014311,197.5,90.56823217356487,390,90.56823217356487" stroke="#fbf8b0" style="stroke-width: 43.1328; mix-blend-mode: normal;"><title>How-to / Question → Apache Spark: 1510</title></path><path d="M5,290.4114664582458C197.5,290.4114664582458,197.5,328.8054777349726,390,328.8054777349726" stroke="#fbf8b0" style="stroke-width: 8.22666; mix-blend-mode: normal;"><title>How-to / Question → Python / Programming: 288</title></path><path d="M5,512.8336940246185C197.5,512.8336940246185,197.5,57.01237258172138,390,57.01237258172138" stroke="#eb86b0" style="stroke-width: 2.97074; mix-blend-mode: normal;"><title>Analysis / Research → General Purpose: 104</title></path><path d="M395,524.8166215780975C587.5,524.8166215780975,587.5,317.3967853418789,780,317.3967853418789" stroke="#5e4fa2" style="stroke-width: 1; mix-blend-mode: normal;"><title>Writing / Translation → SQL / BI Tools: 27</title></path><path d="M5,256.57647793120043C392.5,256.57647793120043,392.5,412.51164244715005,780,412.51164244715005" stroke="#fbf8b0" style="stroke-width: 31.2784; mix-blend-mode: normal;"><title>How-to / Question → Study / Coursework: 1095</title></path><path d="M5,81.8028373210464C197.5,81.8028373210464,197.5,57.13462036905665,390,57.13462036905665" stroke="#fbf8b0" style="stroke-width: 56.1584; mix-blend-mode: normal;"><title>How-to / Question → Power BI: 1966</title></path><path d="M5,538.0563996973763C392.5,538.0563996973763,392.5,436.1204377342779,780,436.1204377342779" stroke="#eb86b0" style="stroke-width: 12.5114; mix-blend-mode: normal;"><title>Analysis / Research → Study / Coursework: 438</title></path><path d="M5,231.71083207827255C197.5,231.71083207827255,197.5,297.5156945737705,390,297.5156945737705" stroke="#fbf8b0" style="stroke-width: 6.22712; mix-blend-mode: normal;"><title>How-to / Question → Amazon S3: 218</title></path><path d="M5,207.74497697131494C392.5,207.74497697131494,392.5,347.22976443817697,780,347.22976443817697" stroke="#fbf8b0" style="stroke-width: 29.1932; mix-blend-mode: normal;"><title>How-to / Question → SQL Server / SSIS / SSRS: 1022</title></path><path d="M5,334.35838908286337C197.5,334.35838908286337,197.5,411.16027917862056,390,411.16027917862056" stroke="#fbf8b0" style="stroke-width: 2.65653; mix-blend-mode: normal;"><title>How-to / Question → Cloud / AWS: 93</title></path><path d="M5,467.1073511981664C392.5,467.1073511981664,392.5,376.680058377716,780,376.680058377716" stroke="#e85e49" style="stroke-width: 3.19926; mix-blend-mode: normal;"><title>Build / Design → SQL Server / SSIS / SSRS: 112</title></path><path d="M5,493.1269314186853C197.5,493.1269314186853,197.5,99.23911432335387,390,99.23911432335387" stroke="#fdbe70" style="stroke-width: 1; mix-blend-mode: normal;"><title>General Inquiry → Power BI: 6</title></path><path d="M5,468.93549747569335C392.5,468.93549747569335,392.5,429.1220652656193,780,429.1220652656193" stroke="#e85e49" style="stroke-width: 1; mix-blend-mode: normal;"><title>Build / Design → Study / Coursework: 16</title></path><path d="M5,528.9156683097403C392.5,528.9156683097403,392.5,380.2220917904249,780,380.2220917904249" stroke="#eb86b0" style="stroke-width: 2.62796; mix-blend-mode: normal;"><title>Analysis / Research → SQL Server / SSIS / SSRS: 92</title></path><path d="M5,326.6601793673388C392.5,326.6601793673388,392.5,524.6910194916155,780,524.6910194916155" stroke="#fbf8b0" style="stroke-width: 8.34092; mix-blend-mode: normal;"><title>How-to / Question → Personal / Daily Life: 292</title></path><path d="M5,404.382021499173C392.5,404.382021499173,392.5,368.4534001288438,780,368.4534001288438" stroke="#56adae" style="stroke-width: 13.2541; mix-blend-mode: normal;"><title>Troubleshooting → SQL Server / SSIS / SSRS: 464</title></path><path d="M5,393.4702734051829C197.5,393.4702734051829,197.5,304.54263182801554,390,304.54263182801554" stroke="#56adae" style="stroke-width: 1; mix-blend-mode: normal;"><title>Troubleshooting → R: 32</title></path><path d="M5,411.7803009660408C197.5,411.7803009660408,197.5,412.5171064939727,390,412.5171064939727" stroke="#56adae" style="stroke-width: 1; mix-blend-mode: normal;"><title>Troubleshooting → Cloud / AWS: 2</title></path><path d="M5,525.9163658231721C197.5,525.9163658231721,197.5,414.0310401300497,390,414.0310401300497" stroke="#eb86b0" style="stroke-width: 1.14259; mix-blend-mode: normal;"><title>Analysis / Research → Cloud / AWS: 40</title></path><path d="M5,374.9174451668407C197.5,374.9174451668407,197.5,86.74202062932059,390,86.74202062932059" stroke="#56adae" style="stroke-width: 3.05643; mix-blend-mode: normal;"><title>Troubleshooting → Power BI: 107</title></path><path d="M5,441.1276787073703C197.5,441.1276787073703,197.5,93.71182831239281,390,93.71182831239281" stroke="#e85e49" style="stroke-width: 10.8832; mix-blend-mode: normal;"><title>Build / Design → Power BI: 381</title></path><path d="M5,515.0903120859409C197.5,515.0903120859409,197.5,100.09605789094472,390,100.09605789094472" stroke="#eb86b0" style="stroke-width: 1.5425; mix-blend-mode: normal;"><title>Analysis / Research → Power BI: 54</title></path><path d="M5,516.74706964995C197.5,516.74706964995,197.5,231.33255609449853,390,231.33255609449853" stroke="#eb86b0" style="stroke-width: 1; mix-blend-mode: normal;"><title>Analysis / Research → Data Pipeline / Engineering: 10</title></path><path d="M5,8.208606706442191C392.5,8.208606706442191,392.5,295.7732426530031,780,295.7732426530031" stroke="#bee5a0" style="stroke-width: 1; mix-blend-mode: normal;"><title>Interview Prep / Learning → SQL / BI Tools: 11</title></path><path d="M5,174.03852997940822C197.5,174.03852997940822,197.5,225.3053863357762,390,225.3053863357762" stroke="#fbf8b0" style="stroke-width: 3.42777; mix-blend-mode: normal;"><title>How-to / Question → Data Pipeline / Engineering: 120</title></path><path d="M5,7.880111672198853C197.5,7.880111672198853,197.5,21.163566670837398,390,21.163566670837398" stroke="#bee5a0" style="stroke-width: 1; mix-blend-mode: normal;"><title>Interview Prep / Learning → General Purpose: 12</title></path><path d="M5,464.36513178187573C392.5,464.36513178187573,392.5,314.92593138865846,780,314.92593138865846" stroke="#e85e49" style="stroke-width: 1; mix-blend-mode: normal;"><title>Build / Design → SQL / BI Tools: 20</title></path><path d="M5,301.7088391576518C392.5,301.7088391576518,392.5,464.49661276567184,780,464.49661276567184" stroke="#fbf8b0" style="stroke-width: 14.3681; mix-blend-mode: normal;"><title>How-to / Question → Python: 503</title></path><path d="M5,450.31125727338565C197.5,450.31125727338565,197.5,117.64764890943589,390,117.64764890943589" stroke="#e85e49" style="stroke-width: 7.48397; mix-blend-mode: normal;"><title>Build / Design → Apache Spark: 262</title></path><path d="M5,348.06948616431686C197.5,348.06948616431686,197.5,533.7859642522153,390,533.7859642522153" stroke="#fbf8b0" style="stroke-width: 18.7099; mix-blend-mode: normal;"><title>How-to / Question → Writing / Translation: 655</title></path><path d="M5,332.27315973505887C197.5,332.27315973505887,197.5,399.92297549904407,390,399.92297549904407" stroke="#fbf8b0" style="stroke-width: 1.51393; mix-blend-mode: normal;"><title>How-to / Question → Databricks: 53</title></path><path d="M5,523.1027344429158C197.5,523.1027344429158,197.5,336.7607705207744,390,336.7607705207744" stroke="#eb86b0" style="stroke-width: 4.48467; mix-blend-mode: normal;"><title>Analysis / Research → Python / Programming: 157</title></path><path d="M5,314.60583984989415C392.5,314.60583984989415,392.5,495.61500721335585,780,495.61500721335585" stroke="#fbf8b0" style="stroke-width: 11.4259; mix-blend-mode: normal;"><title>How-to / Question → Apache Airflow: 400</title></path><path d="M5,413.1799754597723C392.5,413.1799754597723,392.5,473.0517660487871,780,473.0517660487871" stroke="#56adae" style="stroke-width: 2.74222; mix-blend-mode: normal;"><title>Troubleshooting → Python: 96</title></path><path d="M5,544.3977820975488C392.5,544.3977820975488,392.5,474.8799123263144,780,474.8799123263144" stroke="#eb86b0" style="stroke-width: 1; mix-blend-mode: normal;"><title>Analysis / Research → Python: 6</title></path><path d="M5,331.17341548998394C392.5,331.17341548998394,392.5,545.6546326633483,780,545.6546326633483" stroke="#fbf8b0" style="stroke-width: 1; mix-blend-mode: normal;"><title>How-to / Question → OpenAI / ChatGPT: 24</title></path><path d="M5,380.70181424807913C197.5,380.70181424807913,197.5,219.10682786353593,390,219.10682786353593" stroke="#56adae" style="stroke-width: 4.97027; mix-blend-mode: normal;"><title>Troubleshooting → Git / GitHub: 174</title></path><path d="M5,544.6263003822394C392.5,544.6263003822394,392.5,505.0699512424419,780,505.0699512424419" stroke="#eb86b0" style="stroke-width: 1; mix-blend-mode: normal;"><title>Analysis / Research → Apache Airflow: 10</title></path><path d="M5,337.42910353339715C197.5,337.42910353339715,197.5,488.5767270149744,390,488.5767270149744" stroke="#fbf8b0" style="stroke-width: 2.57083; mix-blend-mode: normal;"><title>How-to / Question → AI / ML: 90</title></path><path d="M5,531.0151800503379C197.5,531.0151800503379,197.5,494.2182721682806,390,494.2182721682806" stroke="#eb86b0" style="stroke-width: 1.57106; mix-blend-mode: normal;"><title>Analysis / Research → AI / ML: 55</title></path><path d="M5,469.47822840183443C392.5,469.47822840183443,392.5,504.841432957751,780,504.841432957751" stroke="#e85e49" style="stroke-width: 1; mix-blend-mode: normal;"><title>Build / Design → Apache Airflow: 2</title></path><path d="M395,526.0877545366909C587.5,526.0877545366909,587.5,505.44129345506485,780,505.44129345506485" stroke="#5e4fa2" style="stroke-width: 1; mix-blend-mode: normal;"><title>Writing / Translation → Apache Airflow: 16</title></path><path d="M5,416.2935370886859C392.5,416.2935370886859,392.5,503.07041625139647,780,503.07041625139647" stroke="#56adae" style="stroke-width: 3.4849; mix-blend-mode: normal;"><title>Troubleshooting → Apache Airflow: 122</title></path><path d="M5,465.07925142153454C197.5,465.07925142153454,197.5,412.97414306335435,390,412.97414306335435" stroke="#e85e49" style="stroke-width: 1; mix-blend-mode: normal;"><title>Build / Design → Cloud / AWS: 30</title></path><path d="M5,496.18336347642605C392.5,496.18336347642605,392.5,504.89856252892383,780,504.89856252892383" stroke="#fdbe70" style="stroke-width: 1; mix-blend-mode: normal;"><title>General Inquiry → Apache Airflow: 2</title></path><path d="M395 545.240443272346 L400 545.240443272346 A11.071179459488564 11.071179459488564 0 0 1 411.0711794594886 556.3116227318346 L411.0711794594886 561.3116227318346 A11.071179459488564 11.071179459488564 0 0 1 400 572.3828021913232 L385 572.3828021913232 A11.071179459488564 11.071179459488564 0 0 1 373.9288205405114 561.3116227318346 L373.9288205405114 556.3116227318346 A11.071179459488564 11.071179459488564 0 0 1 385 545.240443272346 L390 545.240443272346" stroke="#5e4fa2" style="stroke-width: 2.14236; mix-blend-mode: normal;"><title>Writing / Translation → Writing / Translation: 75</title></path><path d="M5,162.66974531603634C197.5,162.66974531603634,197.5,206.96679398933225,390,206.96679398933225" stroke="#fbf8b0" style="stroke-width: 19.3098; mix-blend-mode: normal;"><title>How-to / Question → Git / GitHub: 676</title></path><path d="M5,372.83221581903626C197.5,372.83221581903626,197.5,48.22870101391521,390,48.22870101391521" stroke="#56adae" style="stroke-width: 1.11403; mix-blend-mode: normal;"><title>Troubleshooting → General Purpose: 39</title></path><path d="M5,433.8008112044687C197.5,433.8008112044687,197.5,5.88434583079046,390,5.88434583079046" stroke="#e85e49" style="stroke-width: 1; mix-blend-mode: normal;"><title>Build / Design → Amazon Redshift: 18</title></path><path d="M5,279.2569176867716C197.5,279.2569176867716,197.5,298.6641648945376,390,298.6641648945376" stroke="#fbf8b0" style="stroke-width: 14.0824; mix-blend-mode: normal;"><title>How-to / Question → dbt: 493</title></path><path d="M5,394.18439304484207C197.5,394.18439304484207,197.5,305.96246761185296,390,305.96246761185296" stroke="#56adae" style="stroke-width: 1; mix-blend-mode: normal;"><title>Troubleshooting → dbt: 18</title></path><path d="M5,494.2123932709667C197.5,494.2123932709667,197.5,413.4311796327362,390,413.4311796327362" stroke="#fdbe70" style="stroke-width: 1; mix-blend-mode: normal;"><title>General Inquiry → Cloud / AWS: 2</title></path><path d="M5,459.40914148264164C197.5,459.40914148264164,197.5,308.20480328038235,390,308.20480328038235" stroke="#e85e49" style="stroke-width: 3.97051; mix-blend-mode: normal;"><title>Build / Design → dbt: 139</title></path><path d="M5,493.6982271304124C197.5,493.6982271304124,197.5,334.0328334972768,390,334.0328334972768" stroke="#fdbe70" style="stroke-width: 1; mix-blend-mode: normal;"><title>General Inquiry → Python / Programming: 34</title></path><path d="M5,545.7974565912806C197.5,545.7974565912806,197.5,543.6550976723032,390,543.6550976723032" stroke="#eb86b0" style="stroke-width: 1.02833; mix-blend-mode: normal;"><title>Analysis / Research → Writing / Translation: 36</title></path><path d="M5,520.7747044176274C197.5,520.7747044176274,197.5,310.27575023539345,390,310.27575023539345" stroke="#eb86b0" style="stroke-width: 1; mix-blend-mode: normal;"><title>Analysis / Research → dbt: 6</title></path><path d="M5,454.1675033275441C197.5,454.1675033275441,197.5,221.7062233518949,390,221.7062233518949" stroke="#e85e49" style="stroke-width: 1; mix-blend-mode: normal;"><title>Build / Design → Git / GitHub: 8</title></path><path d="M395,525.4450468609974C587.5,525.4450468609974,587.5,381.77887260488166,780,381.77887260488166" stroke="#5e4fa2" style="stroke-width: 1; mix-blend-mode: normal;"><title>Writing / Translation → SQL Server / SSIS / SSRS: 17</title></path><path d="M5,25.301691431223073C197.5,25.301691431223073,197.5,3.5420334127088386,390,3.5420334127088386" stroke="#fbf8b0" style="stroke-width: 4.17046; mix-blend-mode: normal;"><title>How-to / Question → Amazon Redshift: 146</title></path><path d="M5,411.38039396783176C392.5,411.38039396783176,392.5,428.52220476830576,780,428.52220476830576" stroke="#56adae" style="stroke-width: 1; mix-blend-mode: normal;"><title>Troubleshooting → Study / Coursework: 26</title></path><path d="M5,321.4042588194482C197.5,321.4042588194482,197.5,321.15704896897995,390,321.15704896897995" stroke="#fbf8b0" style="stroke-width: 2.17092; mix-blend-mode: normal;"><title>How-to / Question → Docker: 76</title></path><path d="M5,335.91516989731997C197.5,335.91516989731997,197.5,479.62313645797826,390,479.62313645797826" stroke="#fbf8b0" style="stroke-width: 1; mix-blend-mode: normal;"><title>How-to / Question → Terraform: 16</title></path><path d="M5,389.9853695636467C197.5,389.9853695636467,197.5,303.6571234748383,390,303.6571234748383" stroke="#56adae" style="stroke-width: 6.05573; mix-blend-mode: normal;"><title>Troubleshooting → Amazon S3: 212</title></path><path d="M5,520.1748439203138C197.5,520.1748439203138,197.5,307.97040609837893,390,307.97040609837893" stroke="#eb86b0" style="stroke-width: 1.02833; mix-blend-mode: normal;"><title>Analysis / Research → Amazon S3: 36</title></path><path d="M5,225.4694264276525C197.5,225.4694264276525,197.5,283.44312849950165,390,283.44312849950165" stroke="#fbf8b0" style="stroke-width: 6.25569; mix-blend-mode: normal;"><title>How-to / Question → AWS Glue: 219</title></path><path d="M5,545.0262073804487C392.5,545.0262073804487,392.5,530.2040231097832,780,530.2040231097832" stroke="#eb86b0" style="stroke-width: 1; mix-blend-mode: normal;"><title>Analysis / Research → Personal / Daily Life: 18</title></path><path d="M5,377.33116954888834C197.5,377.33116954888834,197.5,113.02015364444529,390,113.02015364444529" stroke="#56adae" style="stroke-width: 1.77102; mix-blend-mode: normal;"><title>Troubleshooting → Apache Spark: 62</title></path><path d="M395,525.8163890736204C587.5,525.8163890736204,587.5,475.0084538614529,780,475.0084538614529" stroke="#5e4fa2" style="stroke-width: 1; mix-blend-mode: normal;"><title>Writing / Translation → Python: 3</title></path><path d="M5,496.3547521899442C392.5,496.3547521899442,392.5,529.6612921836422,780,529.6612921836422" stroke="#fdbe70" style="stroke-width: 1; mix-blend-mode: normal;"><title>General Inquiry → Personal / Daily Life: 10</title></path><path d="M5,396.1267984647145C197.5,396.1267984647145,197.5,333.23301950085875,390,333.23301950085875" stroke="#56adae" style="stroke-width: 1; mix-blend-mode: normal;"><title>Troubleshooting → Python / Programming: 22</title></path><path d="M5,454.48171596899425C197.5,454.48171596899425,197.5,230.98977866746213,390,230.98977866746213" stroke="#e85e49" style="stroke-width: 1; mix-blend-mode: normal;"><title>Build / Design → Data Pipeline / Engineering: 14</title></path><path d="M5,385.0722264427924C197.5,385.0722264427924,197.5,228.90454931965766,390,228.90454931965766" stroke="#56adae" style="stroke-width: 3.77055; mix-blend-mode: normal;"><title>Troubleshooting → Data Pipeline / Engineering: 132</title></path><path d="M395,525.7306947168611C587.5,525.7306947168611,587.5,442.4189729560708,780,442.4189729560708" stroke="#5e4fa2" style="stroke-width: 1; mix-blend-mode: normal;"><title>Writing / Translation → Study / Coursework: 3</title></path><path d="M5,516.2329035093954C197.5,516.2329035093954,197.5,121.76097803387201,390,121.76097803387201" stroke="#eb86b0" style="stroke-width: 1; mix-blend-mode: normal;"><title>Analysis / Research → Apache Spark: 26</title></path><path d="M5,462.7369390034529C197.5,462.7369390034529,197.5,402.02248723964175,390,402.02248723964175" stroke="#e85e49" style="stroke-width: 2.68509; mix-blend-mode: normal;"><title>Build / Design → Databricks: 94</title></path><path d="M5,495.8120212638031C392.5,495.8120212638031,392.5,429.6076666205875,780,429.6076666205875" stroke="#fdbe70" style="stroke-width: 1; mix-blend-mode: normal;"><title>General Inquiry → Study / Coursework: 18</title></path><path d="M395,526.6162030700384C587.5,526.6162030700384,587.5,546.1545164111097,780,546.1545164111097" stroke="#5e4fa2" style="stroke-width: 1; mix-blend-mode: normal;"><title>Writing / Translation → OpenAI / ChatGPT: 11</title></path><path d="M5,496.11195151246005C392.5,496.11195151246005,392.5,474.7513707911756,780,474.7513707911756" stroke="#fdbe70" style="stroke-width: 1; mix-blend-mode: normal;"><title>General Inquiry → Python: 3</title></path><path d="M5,518.2752856788209C197.5,518.2752856788209,197.5,307.0991801379949,390,307.0991801379949" stroke="#eb86b0" style="stroke-width: 2.77078; mix-blend-mode: normal;"><title>Analysis / Research → R: 97</title></path><path d="M5,395.12703096919194C197.5,395.12703096919194,197.5,322.92806567533444,390,322.92806567533444" stroke="#56adae" style="stroke-width: 1.37111; mix-blend-mode: normal;"><title>Troubleshooting → Docker: 48</title></path><path d="M5,457.0382642789736C197.5,457.0382642789736,197.5,307.0706153524085,390,307.0706153524085" stroke="#e85e49" style="stroke-width: 1; mix-blend-mode: normal;"><title>Build / Design → Amazon S3: 27</title></path><path d="M5,418.3644840436972C392.5,418.3644840436972,392.5,529.1899732214672,780,529.1899732214672" stroke="#56adae" style="stroke-width: 1; mix-blend-mode: normal;"><title>Troubleshooting → Personal / Daily Life: 23</title></path><path d="M5,455.3100947509987C197.5,455.3100947509987,197.5,287.19939780410823,390,287.19939780410823" stroke="#e85e49" style="stroke-width: 1.25685; mix-blend-mode: normal;"><title>Build / Design → AWS Glue: 44</title></path><path d="M5,456.29557985372804C197.5,456.29557985372804,197.5,305.35672821722693,390,305.35672821722693" stroke="#e85e49" style="stroke-width: 1; mix-blend-mode: normal;"><title>Build / Design → R: 25</title></path><path d="M5,6.980320926228567C197.5,6.980320926228567,197.5,0.7284020324521848,390,0.7284020324521848" stroke="#bee5a0" style="stroke-width: 1.4568; mix-blend-mode: normal;"><title>Interview Prep / Learning → Amazon Redshift: 51</title></path></g><g><text x="9" y="190.32045776363464" text-anchor="start"><tspan alignment-baseline="middle" style="font-family: Arial, sans-serif; font-size: 10px; fill: black; font-weight: bold;">How-to / Question</tspan></text><text x="399" y="303.2286516910427" text-anchor="start"><tspan alignment-baseline="middle" style="font-family: Arial, sans-serif; font-size: 10px; fill: black; font-weight: bold;">R</tspan></text><text x="9" y="395.484090789021" text-anchor="start"><tspan alignment-baseline="middle" style="font-family: Arial, sans-serif; font-size: 10px; fill: black; font-weight: bold;">Troubleshooting</tspan></text><text x="776" y="306.6992731397863" text-anchor="end"><tspan alignment-baseline="middle" style="font-family: Arial, sans-serif; font-size: 10px; fill: black; font-weight: bold;">SQL / BI Tools</tspan></text><text x="9" y="492.21285827992176" text-anchor="start"><tspan alignment-baseline="middle" style="font-family: Arial, sans-serif; font-size: 10px; fill: black; font-weight: bold;">General Inquiry</tspan></text><text x="9" y="453.31055975995366" text-anchor="start"><tspan alignment-baseline="middle" style="font-family: Arial, sans-serif; font-size: 10px; fill: black; font-weight: bold;">Build / Design</tspan></text><text x="776" y="466.1819351152669" text-anchor="end"><tspan alignment-baseline="middle" style="font-family: Arial, sans-serif; font-size: 10px; fill: black; font-weight: bold;">Python</tspan></text><text x="776" y="357.3274161429558" text-anchor="end"><tspan alignment-baseline="middle" style="font-family: Arial, sans-serif; font-size: 10px; fill: black; font-weight: bold;">SQL Server / SSIS / SSRS</tspan></text><text x="9" y="528.8299739529812" text-anchor="start"><tspan alignment-baseline="middle" style="font-family: Arial, sans-serif; font-size: 10px; fill: black; font-weight: bold;">Analysis / Research</tspan></text><text x="399" y="39.74495969476564" text-anchor="start"><tspan alignment-baseline="middle" style="font-family: Arial, sans-serif; font-size: 10px; fill: black; font-weight: bold;">General Purpose</tspan></text><text x="399" y="535.3713098522582" text-anchor="start"><tspan alignment-baseline="middle" style="font-family: Arial, sans-serif; font-size: 10px; fill: black; font-weight: bold;">Writing / Translation</tspan></text><text x="776" y="525.4908334880336" text-anchor="end"><tspan alignment-baseline="middle" style="font-family: Arial, sans-serif; font-size: 10px; fill: black; font-weight: bold;">Personal / Daily Life</tspan></text><text x="399" y="491.1475577177469" text-anchor="start"><tspan alignment-baseline="middle" style="font-family: Arial, sans-serif; font-size: 10px; fill: black; font-weight: bold;">AI / ML</tspan></text><text x="399" y="95.56706965117826" text-anchor="start"><tspan alignment-baseline="middle" style="font-family: Arial, sans-serif; font-size: 10px; fill: black; font-weight: bold;">Apache Spark</tspan></text><text x="399" y="331.84762739992016" text-anchor="start"><tspan alignment-baseline="middle" style="font-family: Arial, sans-serif; font-size: 10px; fill: black; font-weight: bold;">Python / Programming</tspan></text><text x="776" y="419.6671212365336" text-anchor="end"><tspan alignment-baseline="middle" style="font-family: Arial, sans-serif; font-size: 10px; fill: black; font-weight: bold;">Study / Coursework</tspan></text><text x="399" y="64.96137161971973" text-anchor="start"><tspan alignment-baseline="middle" style="font-family: Arial, sans-serif; font-size: 10px; fill: black; font-weight: bold;">Power BI</tspan></text><text x="399" y="301.4433525918952" text-anchor="start"><tspan alignment-baseline="middle" style="font-family: Arial, sans-serif; font-size: 10px; fill: black; font-weight: bold;">Amazon S3</tspan></text><text x="399" y="412.2171762453159" text-anchor="start"><tspan alignment-baseline="middle" style="font-family: Arial, sans-serif; font-size: 10px; fill: black; font-weight: bold;">Cloud / AWS</tspan></text><text x="399" y="227.53343961151253" text-anchor="start"><tspan alignment-baseline="middle" style="font-family: Arial, sans-serif; font-size: 10px; fill: black; font-weight: bold;">Data Pipeline / Engineering</tspan></text><text x="9" y="7.308815960471736" text-anchor="start"><tspan alignment-baseline="middle" style="font-family: Arial, sans-serif; font-size: 10px; fill: black; font-weight: bold;">Interview Prep / Learning</tspan></text><text x="399" y="401.26552042160296" text-anchor="start"><tspan alignment-baseline="middle" style="font-family: Arial, sans-serif; font-size: 10px; fill: black; font-weight: bold;">Databricks</tspan></text><text x="776" y="497.78593091791936" text-anchor="end"><tspan alignment-baseline="middle" style="font-family: Arial, sans-serif; font-size: 10px; fill: black; font-weight: bold;">Apache Airflow</tspan></text><text x="776" y="545.8117389840734" text-anchor="end"><tspan alignment-baseline="middle" style="font-family: Arial, sans-serif; font-size: 10px; fill: black; font-weight: bold;">OpenAI / ChatGPT</tspan></text><text x="399" y="209.56618947769118" text-anchor="start"><tspan alignment-baseline="middle" style="font-family: Arial, sans-serif; font-size: 10px; fill: black; font-weight: bold;">Git / GitHub</tspan></text><text x="399" y="3.070714450533891" text-anchor="start"><tspan alignment-baseline="middle" style="font-family: Arial, sans-serif; font-size: 10px; fill: black; font-weight: bold;">Amazon Redshift</tspan></text><text x="399" y="300.992194919826" text-anchor="start"><tspan alignment-baseline="middle" style="font-family: Arial, sans-serif; font-size: 10px; fill: black; font-weight: bold;">dbt</tspan></text><text x="399" y="321.8426038230526" text-anchor="start"><tspan alignment-baseline="middle" style="font-family: Arial, sans-serif; font-size: 10px; fill: black; font-weight: bold;">Docker</tspan></text><text x="399" y="479.62313645797826" text-anchor="start"><tspan alignment-baseline="middle" style="font-family: Arial, sans-serif; font-size: 10px; fill: black; font-weight: bold;">Terraform</tspan></text><text x="399" y="284.0715537824017" text-anchor="start"><tspan alignment-baseline="middle" style="font-family: Arial, sans-serif; font-size: 10px; fill: black; font-weight: bold;">AWS Glue</tspan></text></g></g></svg>